<svg xmlns="http://www.w3.org/2000/svg" viewBox="0 0 37 32.08"><defs><style>.cls-1{fill:#fff;}</style></defs><title>gift</title><g id="Layer_2" data-name="Layer 2"><g id="レイヤー_1" data-name="レイヤー 1"><path class="cls-1" d="M2,21.08v8.31a2.7,2.7,0,0,0,2.69,2.69H13v-11Z"/><path class="cls-1" d="M23,32.08h8.31A2.7,2.7,0,0,0,34,29.39V21.08H23Z"/><path class="cls-1" d="M0,12.77v2.62a2.7,2.7,0,0,0,2.69,2.69H13v-8H2.69A2.69,2.69,0,0,0,0,12.77Z"/><path class="cls-1" d="M34.31,10.08H24v8H34.31A2.7,2.7,0,0,0,37,15.39V12.77A2.69,2.69,0,0,0,34.31,10.08Z"/><polygon class="cls-1" points="16 10.08 16 12.83 16 18.33 16 21.08 16 32.08 21 32.08 21 21.08 21 18.33 21 12.83 21 10.08 16 10.08"/><ellipse class="cls-1" cx="18.15" cy="4.89" rx="3.59" ry="2.69"/><path class="cls-1" d="M33.46,5.52,31.61,0,23.38,3.29A4.28,4.28,0,0,1,23,8.08h8.61A1.83,1.83,0,0,0,33.46,5.52Z"/><path class="cls-1" d="M12.92,3.29,4.69,0,2.85,5.52A1.83,1.83,0,0,0,4.69,8.08H13.3a4.4,4.4,0,0,1-.94-2.69A4.33,4.33,0,0,1,12.92,3.29Z"/></g></g></svg>