<svg xmlns="http://www.w3.org/2000/svg" viewBox="0 0 205.51 199.08"><defs><style>.cls-1{fill:#7a89a8;}.cls-2{fill:#fff;}</style></defs><title>Asset 11</title><g id="Layer_2" data-name="Layer 2"><g id="レイヤー_1" data-name="レイヤー 1"><circle class="cls-1" cx="105.96" cy="99.54" r="99.54"/><path class="cls-2" d="M88.46,57.9,88.78,61c-4.36,1.16-9,2.31-12,3.05a.65.65,0,0,1-.51.55l-1.54-3.92c2.15-.35,5.1-1,8.28-1.61l-.87-.28a43.78,43.78,0,0,0,1.22-6.52l4.15,1.15c-.1.23-.39.39-.84.39-.29,1.41-.77,3.24-1.25,4.75Zm-.19-21v3.53h-13V36.9Zm-.71,5.81V51.8H76.13V42.71Zm-8,9.83a22,22,0,0,1,1.25,5.68l-3.27.87a22.18,22.18,0,0,0-1.06-5.78Zm4.53-3.76V45.73H79.38v3.05Zm12,12.65a.78.78,0,0,1-.55.22,21.86,21.86,0,0,1-6.77,4.08,24,24,0,0,0-2.54-2.47,20,20,0,0,0,6.58-3.85Zm7.89-19.17V59.41H89.91V42.26h4c.16-.73.32-1.54.42-2.31h-5.3V36.71h16V40H98.41c-.19.71-.41,1.51-.67,2.31Zm-3.69,4.88v-2H93.44v2Zm0,4.69V49.74H93.44v2.09Zm0,4.75V54.46H93.44v2.12Zm2.25,9.15a39,39,0,0,0-5.27-4.24l2.93-1.83a48.93,48.93,0,0,1,5.42,4Z"/><path class="cls-2" d="M128.53,55l3.89,1.67a1,1,0,0,1-.9.32,41.6,41.6,0,0,1-3.11,4.43h7.31v3.31H108.34V61.46h6.32A23.9,23.9,0,0,0,112,56.23L114.86,55h-4.92V51.73h9.86V48.52h-6V47A43.13,43.13,0,0,1,109,50,16.28,16.28,0,0,0,106.64,47c5.52-2.79,10.78-7.73,13.19-11.75l5.14.29a.91.91,0,0,1-.84.64A35,35,0,0,0,137.55,46.5,18.75,18.75,0,0,0,135,49.94a43.06,43.06,0,0,1-4.92-3.09v1.67h-6.19v3.21h10V55Zm-8.73,0h-4.65a21.59,21.59,0,0,1,2.95,5.3l-2.6,1.12h4.3Zm8.06-9.89a33.6,33.6,0,0,1-6-6.07,32,32,0,0,1-5.75,6.07Zm-2.63,15.38A31.57,31.57,0,0,0,128.34,55h-4.46v6.42h3.3Z"/><path class="cls-2" d="M61.72,115.15c0-22.15,8.18-37.76,24.56-37.76,17.15,0,23.79,17,23.79,37.18,0,24.09-9,37.86-24.27,37.86C68.84,152.43,61.72,135.48,61.72,115.15Zm24.27,26c6.55,0,9.83-9.25,9.83-26.3,0-16.47-3-26.2-9.73-26.2-6.17,0-10.12,8.86-10.12,26.2s3.57,26.3,9.92,26.3Z"/><path class="cls-2" d="M151.33,114.51v23.73c0,4-2,4.49-7.93,4.49a14.55,14.55,0,0,0-1.41-3.85c1.25.1,2.6.1,3.56.1,1.7,0,1.9,0,1.9-.81v-7.83H127.86v12.39H124V114.51Zm-23.47,3.82v8.19h7.64v-8.19Zm11.49,8.19h8.1v-8.19h-8.1Z"/><polyline class="cls-1" points="25.69 134.86 0 179.82 38.53 166.97"/></g></g></svg>