<svg xmlns="http://www.w3.org/2000/svg" viewBox="0 0 32.97 32.39"><defs><style>.cls-1{fill:#fff;}</style></defs><title>anketo</title><g id="Layer_2" data-name="Layer 2"><g id="レイヤー_1" data-name="レイヤー 1"><polygon class="cls-1" points="25 29.39 3 29.39 3 2.39 14 2.39 14 0.39 0 0.39 0 32.39 28 32.39 28 22.75 25 25.45 25 29.39"/><polygon class="cls-1" points="17 5.8 21.85 10.65 23.76 8.73 15.42 0.39 14.3 0.39 17 3.1 17 5.8"/><polygon class="cls-1" points="17 10.39 17 5.41 17 2.7 14 0 14 2.7 14 13.39 18.34 13.39 21.04 10.39 17 10.39"/><polygon class="cls-1" points="14.05 27.04 22.16 24.33 16.75 18.93 14.05 27.04"/><polygon class="cls-1" points="19.46 21.63 17.75 19.89 28.55 9.09 27.57 8.11 16.75 18.93 22.16 24.33 32.97 13.52 30.27 10.81 19.46 21.63"/></g></g></svg>